<svg width="33" height="33" viewBox="0 0 33 33" fill="none" xmlns="http://www.w3.org/2000/svg">
<path d="M23.375 24.75C24.1043 24.75 24.8038 25.0397 25.3195 25.5555C25.8353 26.0712 26.125 26.7707 26.125 27.5C26.125 28.2293 25.8353 28.9288 25.3195 29.4445C24.8038 29.9603 24.1043 30.25 23.375 30.25C22.6457 30.25 21.9462 29.9603 21.4305 29.4445C20.9147 28.9288 20.625 28.2293 20.625 27.5C20.625 25.9737 21.8487 24.75 23.375 24.75ZM1.375 2.75H5.87125L7.16375 5.5H27.5C27.8647 5.5 28.2144 5.64487 28.4723 5.90273C28.7301 6.16059 28.875 6.51033 28.875 6.875C28.875 7.10875 28.8062 7.3425 28.71 7.5625L23.7875 16.4588C23.32 17.2975 22.4125 17.875 21.3813 17.875H11.1375L9.9 20.1163L9.85875 20.2812C9.85875 20.3724 9.89497 20.4599 9.95943 20.5243C10.0239 20.5888 10.1113 20.625 10.2025 20.625H26.125V23.375H9.625C8.89565 23.375 8.19618 23.0853 7.68046 22.5695C7.16473 22.0538 6.875 21.3543 6.875 20.625C6.875 20.1438 6.99875 19.69 7.205 19.305L9.075 15.9363L4.125 5.5H1.375V2.75ZM9.625 24.75C10.3543 24.75 11.0538 25.0397 11.5695 25.5555C12.0853 26.0712 12.375 26.7707 12.375 27.5C12.375 28.2293 12.0853 28.9288 11.5695 29.4445C11.0538 29.9603 10.3543 30.25 9.625 30.25C8.89565 30.25 8.19618 29.9603 7.68046 29.4445C7.16473 28.9288 6.875 28.2293 6.875 27.5C6.875 25.9737 8.09875 24.75 9.625 24.75ZM22 15.125L25.8225 8.25H8.4425L11.6875 15.125H22Z" fill="#191919"/>
</svg>
