<svg width="20" height="15" viewBox="0 0 20 15" fill="none" xmlns="http://www.w3.org/2000/svg">
<path d="M6.41256 10.8017L16.9955 0.481049C17.3244 0.160349 17.7429 0 18.2511 0C18.7593 0 19.1779 0.160349 19.5067 0.481049C19.8356 0.801749 20 1.20991 20 1.70554C20 2.20117 19.8356 2.60933 19.5067 2.93003L7.66816 14.4752C7.30942 14.8251 6.89088 15 6.41256 15C5.93423 15 5.51569 14.8251 5.15695 14.4752L0.493273 9.92711C0.164424 9.60641 0 9.19825 0 8.70262C0 8.207 0.164424 7.79883 0.493273 7.47813C0.822122 7.15743 1.24066 6.99708 1.74888 6.99708C2.2571 6.99708 2.67564 7.15743 3.00448 7.47813L6.41256 10.8017Z" fill="#333333"/>
</svg>
