<svg width="19" height="19" viewBox="0 0 19 19" fill="none" xmlns="http://www.w3.org/2000/svg">
<path d="M17.6429 10.8571H10.8571V17.6429C10.8571 18.0028 10.7142 18.348 10.4596 18.6025C10.2051 18.857 9.85994 19 9.5 19C9.14006 19 8.79487 18.857 8.54036 18.6025C8.28584 18.348 8.14286 18.0028 8.14286 17.6429V10.8571H1.35714C0.997206 10.8571 0.652012 10.7142 0.397498 10.4596C0.142985 10.2051 0 9.85994 0 9.5C0 9.14006 0.142985 8.79487 0.397498 8.54036C0.652012 8.28584 0.997206 8.14286 1.35714 8.14286H8.14286V1.35714C8.14286 0.997206 8.28584 0.652011 8.54036 0.397498C8.79487 0.142984 9.14006 0 9.5 0C9.85994 0 10.2051 0.142984 10.4596 0.397498C10.7142 0.652011 10.8571 0.997206 10.8571 1.35714V8.14286H17.6429C18.0028 8.14286 18.348 8.28584 18.6025 8.54036C18.857 8.79487 19 9.14006 19 9.5C19 9.85994 18.857 10.2051 18.6025 10.4596C18.348 10.7142 18.0028 10.8571 17.6429 10.8571Z" fill="#191919"/>
</svg>
