<svg width="32" height="32" viewBox="0 0 32 32" fill="none" xmlns="http://www.w3.org/2000/svg">
<path d="M26.6285 27.5619L17.7194 18.6401C16.9239 19.2774 16.0091 19.7819 14.9751 20.1536C13.941 20.5254 12.8406 20.7112 11.6739 20.7112C8.78376 20.7112 6.33801 19.7086 4.33664 17.7033C2.33528 15.6981 1.33407 13.2488 1.33301 10.3556C1.33301 7.46136 2.33422 5.01212 4.33664 3.00791C6.33907 1.0037 8.78483 0.00106211 11.6739 0C14.5641 0 17.0098 1.00264 19.0112 3.00791C21.0126 5.01318 22.0138 7.46242 22.0148 10.3556C22.0148 11.5239 21.8292 12.6259 21.458 13.6615C21.0868 14.697 20.583 15.6131 19.9466 16.4097L28.8955 25.3713C29.1872 25.6633 29.333 26.0218 29.333 26.4467C29.333 26.8715 29.1739 27.2432 28.8557 27.5619C28.5641 27.854 28.1929 28 27.7421 28C27.2913 28 26.9201 27.854 26.6285 27.5619ZM11.6739 17.5249C13.6626 17.5249 15.3532 16.8276 16.7457 15.4331C18.1383 14.0385 18.8341 12.346 18.833 10.3556C18.833 8.36415 18.1367 6.67114 16.7441 5.27659C15.3516 3.88203 13.6615 3.18528 11.6739 3.18634C9.68528 3.18634 7.99467 3.88362 6.6021 5.27818C5.20952 6.67274 4.51377 8.36522 4.51483 10.3556C4.51483 12.3471 5.21111 14.0401 6.60369 15.4347C7.99627 16.8292 9.68634 17.526 11.6739 17.5249Z" fill="black"/>
</svg>
