<svg width="30" height="30" viewBox="0 0 30 30" fill="none" xmlns="http://www.w3.org/2000/svg">
<g clip-path="url(#clip0_4_2479)">
<path d="M15 28.125C11.519 28.125 8.18064 26.7422 5.71922 24.2808C3.25781 21.8194 1.875 18.481 1.875 15C1.875 11.519 3.25781 8.18064 5.71922 5.71922C8.18064 3.25781 11.519 1.875 15 1.875C18.481 1.875 21.8194 3.25781 24.2808 5.71922C26.7422 8.18064 28.125 11.519 28.125 15C28.125 18.481 26.7422 21.8194 24.2808 24.2808C21.8194 26.7422 18.481 28.125 15 28.125ZM15 30C18.9782 30 22.7936 28.4196 25.6066 25.6066C28.4196 22.7936 30 18.9782 30 15C30 11.0218 28.4196 7.20644 25.6066 4.3934C22.7936 1.58035 18.9782 0 15 0C11.0218 0 7.20644 1.58035 4.3934 4.3934C1.58035 7.20644 0 11.0218 0 15C0 18.9782 1.58035 22.7936 4.3934 25.6066C7.20644 28.4196 11.0218 30 15 30Z" fill="#E1251B"/>
<path d="M13.1289 20.625C13.1289 20.3788 13.1774 20.135 13.2716 19.9075C13.3659 19.68 13.504 19.4733 13.6781 19.2992C13.8522 19.1251 14.0589 18.987 14.2864 18.8927C14.5139 18.7985 14.7577 18.75 15.0039 18.75C15.2501 18.75 15.494 18.7985 15.7214 18.8927C15.9489 18.987 16.1556 19.1251 16.3297 19.2992C16.5038 19.4733 16.642 19.68 16.7362 19.9075C16.8304 20.135 16.8789 20.3788 16.8789 20.625C16.8789 21.1223 16.6814 21.5992 16.3297 21.9508C15.9781 22.3025 15.5012 22.5 15.0039 22.5C14.5066 22.5 14.0297 22.3025 13.6781 21.9508C13.3265 21.5992 13.1289 21.1223 13.1289 20.625ZM13.3127 9.36563C13.2877 9.12908 13.3127 8.88993 13.3862 8.66368C13.4596 8.43744 13.5798 8.22916 13.7389 8.05236C13.898 7.87556 14.0925 7.73418 14.3098 7.63741C14.5271 7.54064 14.7623 7.49063 15.0002 7.49063C15.238 7.49063 15.4732 7.54064 15.6905 7.63741C15.9078 7.73418 16.1023 7.87556 16.2614 8.05236C16.4206 8.22916 16.5407 8.43744 16.6142 8.66368C16.6876 8.88993 16.7126 9.12908 16.6877 9.36563L16.0314 15.9413C16.0094 16.1996 15.8912 16.4402 15.7002 16.6156C15.5092 16.7909 15.2594 16.8882 15.0002 16.8882C14.7409 16.8882 14.4911 16.7909 14.3001 16.6156C14.1092 16.4402 13.991 16.1996 13.9689 15.9413L13.3127 9.36563Z" fill="#E1251B"/>
</g>
<defs>
<clipPath id="clip0_4_2479">
<rect width="30" height="30" fill="white"/>
</clipPath>
</defs>
</svg>
